<mxfile host="65bd71144e">
    <diagram id="IvRarGTonNY2pontKUcj" name="Page-1">
        <mxGraphModel dx="672" dy="692" grid="1" gridSize="10" guides="1" tooltips="1" connect="1" arrows="1" fold="1" page="1" pageScale="1" pageWidth="827" pageHeight="1169" math="0" shadow="0">
            <root>
                <mxCell id="0"/>
                <mxCell id="1" parent="0"/>
                <mxCell id="2" value="Action" style="rounded=1;whiteSpace=wrap;html=1;fillColor=#f8cecc;strokeColor=#b85450;strokeWidth=1;arcSize=24;fontFamily=Verdana;fontSize=13;" vertex="1" parent="1">
                    <mxGeometry x="310" y="340" width="120" height="50" as="geometry"/>
                </mxCell>
                <mxCell id="3" value="Store" style="rounded=1;whiteSpace=wrap;html=1;fillColor=#dae8fc;strokeColor=#6c8ebf;strokeWidth=1;arcSize=24;imageVerticalAlign=middle;portConstraint=none;fontFamily=Verdana;verticalAlign=top;fontSize=13;" vertex="1" parent="1">
                    <mxGeometry x="170" y="440" width="120" height="80" as="geometry"/>
                </mxCell>
                <mxCell id="4" value="Handler" style="rounded=1;whiteSpace=wrap;html=1;fillColor=#fff2cc;strokeColor=#d6b656;strokeWidth=1;arcSize=24;fontFamily=Verdana;fontSize=13;" vertex="1" parent="1">
                    <mxGeometry x="170" y="560" width="120" height="50" as="geometry"/>
                </mxCell>
                <mxCell id="5" value="State" style="rounded=1;whiteSpace=wrap;html=1;fillColor=#f5f5f5;strokeColor=#666666;strokeWidth=1;arcSize=24;fontColor=#333333;fontFamily=Verdana;fontSize=12;" vertex="1" parent="1">
                    <mxGeometry x="335" y="465" width="70" height="30" as="geometry"/>
                </mxCell>
                <mxCell id="6" value="View" style="rounded=1;whiteSpace=wrap;html=1;fillColor=#d5e8d4;strokeColor=#82b366;strokeWidth=1;arcSize=24;fontFamily=Verdana;fontSize=13;" vertex="1" parent="1">
                    <mxGeometry x="450" y="455" width="120" height="50" as="geometry"/>
                </mxCell>
                <mxCell id="10" value="" style="endArrow=classic;html=1;exitX=1;exitY=0.5;exitDx=0;exitDy=0;entryX=0;entryY=0.5;entryDx=0;entryDy=0;dashed=1;" edge="1" parent="1" source="3" target="5">
                    <mxGeometry width="50" height="50" relative="1" as="geometry">
                        <mxPoint x="400" y="610" as="sourcePoint"/>
                        <mxPoint x="450" y="560" as="targetPoint"/>
                    </mxGeometry>
                </mxCell>
                <mxCell id="11" value="" style="endArrow=classic;html=1;exitX=1;exitY=0.5;exitDx=0;exitDy=0;entryX=0;entryY=0.5;entryDx=0;entryDy=0;dashed=1;" edge="1" parent="1" source="5" target="6">
                    <mxGeometry width="50" height="50" relative="1" as="geometry">
                        <mxPoint x="300" y="475" as="sourcePoint"/>
                        <mxPoint x="345" y="475" as="targetPoint"/>
                    </mxGeometry>
                </mxCell>
                <mxCell id="17" value="State" style="rounded=1;whiteSpace=wrap;html=1;fillColor=#b0e3e6;strokeColor=#0e8088;strokeWidth=1;arcSize=24;fontFamily=Verdana;" vertex="1" parent="1">
                    <mxGeometry x="195" y="480" width="70" height="30" as="geometry"/>
                </mxCell>
                <mxCell id="18" value="" style="endArrow=classic;startArrow=classic;html=1;entryX=0;entryY=0.5;entryDx=0;entryDy=0;exitX=0.5;exitY=0;exitDx=0;exitDy=0;" edge="1" parent="1" source="3" target="2">
                    <mxGeometry width="50" height="50" relative="1" as="geometry">
                        <mxPoint x="400" y="610" as="sourcePoint"/>
                        <mxPoint x="450" y="560" as="targetPoint"/>
                    </mxGeometry>
                </mxCell>
                <mxCell id="19" value="" style="endArrow=classic;startArrow=classic;html=1;entryX=1;entryY=0.5;entryDx=0;entryDy=0;exitX=0.5;exitY=0;exitDx=0;exitDy=0;" edge="1" parent="1" source="6" target="2">
                    <mxGeometry width="50" height="50" relative="1" as="geometry">
                        <mxPoint x="240" y="450" as="sourcePoint"/>
                        <mxPoint x="320" y="375" as="targetPoint"/>
                    </mxGeometry>
                </mxCell>
                <mxCell id="20" value="" style="endArrow=classic;startArrow=classic;html=1;entryX=0.5;entryY=1;entryDx=0;entryDy=0;" edge="1" parent="1" source="4" target="3">
                    <mxGeometry width="50" height="50" relative="1" as="geometry">
                        <mxPoint x="520" y="465" as="sourcePoint"/>
                        <mxPoint x="440" y="375" as="targetPoint"/>
                    </mxGeometry>
                </mxCell>
            </root>
        </mxGraphModel>
    </diagram>
</mxfile>